HIERARCHY
ROOT root
{
	OFFSET	0	13.1	24.9
	CHANNELS 6  Xposition Yposition Zposition Xrotation Yrotation Zrotation
	JOINT spine_1
	{
		OFFSET	0	9.99999	0
		CHANNELS 3  Xrotation Yrotation Zrotation
		JOINT spine_2
		{
			OFFSET	0	112	-10
			CHANNELS 3  Xrotation Yrotation Zrotation
			JOINT spine_3
			{
				OFFSET	0	206.5	19.3
				CHANNELS 3  Xrotation Yrotation Zrotation
				JOINT spine_4
				{
					OFFSET	0	110.4	14.6
					CHANNELS 3  Xrotation Yrotation Zrotation
					JOINT neck_1
					{
						OFFSET	0	71.8	-50.3
						CHANNELS 3  Xrotation Yrotation Zrotation
						JOINT neck_2
						{
							OFFSET	0	86.2	-25.8
							CHANNELS 3  Xrotation Yrotation Zrotation
							JOINT head_ee
							{
								OFFSET	0	179.8	-8.7
								CHANNELS 3  Xrotation Yrotation Zrotation
								End Site
								{
									OFFSET	1	0	0
								}
							}
						}
					}
					JOINT left_clavicle
					{
						OFFSET	-43.2	22.4	-70.8
						CHANNELS 3  Xrotation Yrotation Zrotation
						JOINT left_shoulder
						{
							OFFSET	-93.9	-5.79999	48.7
							CHANNELS 3  Xrotation Yrotation Zrotation
							JOINT left_elbow
							{
								OFFSET	-291.4	-30.8	15.2
								CHANNELS 3  Xrotation Yrotation Zrotation
								JOINT left_lowarm_twist
								{
									OFFSET	-110.7	-3.89999	13.6
									CHANNELS 3  Xrotation Yrotation Zrotation
									JOINT left_hand
									{
										OFFSET	-110.7	-3.89999	13.6
										CHANNELS 3  Xrotation Yrotation Zrotation
										JOINT left_ee
										{
											OFFSET	-80.8	-5.10001	12.1
											CHANNELS 3  Xrotation Yrotation Zrotation
											End Site
											{
												OFFSET	1	0	0
											}
										}
									}
								}
							}
						}
					}
					JOINT right_clavicle
					{
						OFFSET	43.2	22.4	-70.8
						CHANNELS 3  Xrotation Yrotation Zrotation
						JOINT right_shoulder
						{
							OFFSET	93.9	-5.79999	48.7
							CHANNELS 3  Xrotation Yrotation Zrotation
							JOINT right_elbow
							{
								OFFSET	291.4	-30.8	15.2
								CHANNELS 3  Xrotation Yrotation Zrotation
								JOINT right_lowarm_twist
								{
									OFFSET	110.7	-3.89999	13.6
									CHANNELS 3  Xrotation Yrotation Zrotation
									JOINT right_hand
									{
										OFFSET	110.7	-3.89999	13.6
										CHANNELS 3  Xrotation Yrotation Zrotation
										JOINT right_ee
										{
											OFFSET	80.8	-5.10001	12.1
											CHANNELS 3  Xrotation Yrotation Zrotation
											End Site
											{
												OFFSET	1	0	0
											}
										}
									}
								}
							}
						}
					}
				}
			}
		}
	}
	JOINT left_hip
	{
		OFFSET	-82.8	-127.5	0.300001
		CHANNELS 3  Xrotation Yrotation Zrotation
		JOINT left_knee
		{
			OFFSET	-28.2	-396.7	2.2
			CHANNELS 3  Xrotation Yrotation Zrotation
			JOINT left_ankle
			{
				OFFSET	-11.7	-411.3	35.4
				CHANNELS 3  Xrotation Yrotation Zrotation
				JOINT left_toes
				{
					OFFSET	0	-60	-88.6
					CHANNELS 3  Xrotation Yrotation Zrotation
					JOINT left_foot_ee
					{
						OFFSET	-22.5	-16.5	-42.2
						CHANNELS 3  Xrotation Yrotation Zrotation
						End Site
						{
							OFFSET	1	0	0
						}
					}
				}
			}
		}
	}
	JOINT right_hip
	{
		OFFSET	82.8	-127.5	0.300001
		CHANNELS 3  Xrotation Yrotation Zrotation
		JOINT right_knee
		{
			OFFSET	28.2	-396.7	2.2
			CHANNELS 3  Xrotation Yrotation Zrotation
			JOINT right_ankle
			{
				OFFSET	11.7	-411.3	35.4
				CHANNELS 3  Xrotation Yrotation Zrotation
				JOINT right_toes
				{
					OFFSET	0	-60	-88.6
					CHANNELS 3  Xrotation Yrotation Zrotation
					JOINT right_foot_ee
					{
						OFFSET	22.5	-16.5	-42.2
						CHANNELS 3  Xrotation Yrotation Zrotation
						End Site
						{
							OFFSET	1	0	0
						}
					}
				}
			}
		}
	}
}
MOTION
Frames: 6
Frame Time: 0.02
3177.02 653.055 -1669.29 10.3352616143 75.5658106522 -5.06162464077 -0.353856 0.166132 -1.09686 -0.353217 0.235587 -1.08407 -0.357481 0.464524 -1.00744 -0.358772 0.299598 -1.06815 -14.5118 4.8018 -0.0580171 -14.5803 9.20712 1.50133 -0.0 0.0 -0.0 5.30896 23.2592 10.0558 -33.7129 -13.4918 63.8373 0.255598 -7.21631 0.0161174 -79.1074 -7.70849 5.29087 5.91005 -16.3633 34.406 -0.0 0.0 -0.0 11.1797 27.7216 -21.3183 9.98566 11.9556 -57.6367 2.32067 48.9739 -1.05707 82.4275 4.12123 8.74064 2.70751 -29.8576 -27.1687 0.0 0.0 0.0 32.0361 25.23 -14.643 1.36859 -0.0587718 -0.201784 1.97479 -8.08018 -0.299793 -17.8197 0.0 0.0 -0.0 0.0 -0.0 -27.0396 24.9165 -2.64831 1.21221 0.0518123 0.178798 36.9524 -18.6887 4.71038 -34.8552 0.0 0.0 0.0 0.0 0.0 
3155.5238119 649.879 -1666.08295494 9.42128286703 75.3441394893 -3.58940925591 -0.215202 0.12127 -1.32862 -0.214243 0.20556 -1.31821 -0.218644 0.482867 -1.2437 -0.220693 0.280405 -1.30434 -12.7391 5.01913 -0.50414 -12.7977 9.85767 0.995797 -0.0 0.0 -0.0 5.44608 22.6175 10.2807 -32.9993 -13.2322 64.4442 0.276636 -7.80323 0.0188669 -78.6725 -7.65319 5.29565 6.26038 -17.659 36.3602 -0.0 0.0 -0.0 11.6572 27.6186 -22.4105 7.48457 12.7088 -56.1342 2.23122 47.8564 -0.990152 81.4971 4.01224 8.6919 2.73795 -29.9772 -27.3765 0.0 0.0 0.0 31.6669 25.1719 -14.4362 0.995293 -0.0422624 -0.146883 1.35453 -8.47757 -0.206414 -17.5005 0.0 0.0 -0.0 0.0 -0.0 -27.7447 24.9496 -3.04376 1.32445 0.0568011 0.195298 36.6901 -19.781 4.70653 -34.6925 0.0 0.0 0.0 0.0 0.0 
3113.76795926 650.991 -1662.30364058 10.2068064009 73.693056236 -4.07341097409 -0.212441 -0.0558525 -1.29548 -0.211507 0.0266886 -1.29641 -0.211664 0.303278 -1.26073 -0.213869 0.100381 -1.2928 -9.72049 5.48847 0.445697 -9.74876 10.0176 1.78053 -0.0 0.0 -0.0 5.99268 23.694 10.9954 -30.3512 -13.3151 62.9611 0.339237 -9.5395 0.0283062 -76.4969 -7.376 5.31318 6.09762 -16.4878 35.8282 -0.0 0.0 -0.0 11.4569 25.5905 -22.19 1.93735 14.2259 -56.1685 2.45785 50.5951 -1.16183 80.3551 3.87955 8.62966 2.98474 -29.9645 -28.9128 0.0 0.0 0.0 31.3814 24.7737 -15.4573 -6.16873 0.204388 0.9242 3.19512 -8.15656 -0.483529 -16.7555 0.0 0.0 -0.0 0.0 -0.0 -29.9479 24.6046 -2.05969 1.41752 0.0609622 0.208973 31.262 -24.5761 4.24106 -35.0863 0.0 0.0 0.0 0.0 0.0 
3113.81552355 650.991 -1661.88567477 10.4416609414 74.0656730813 -4.31787683487 -0.212441 -0.0558525 -1.29548 -0.211507 0.0266886 -1.29641 -0.211664 0.303278 -1.26073 -0.213869 0.100381 -1.2928 -9.72049 5.48847 0.445697 -9.74876 10.0176 1.78053 -0.0 0.0 -0.0 5.99268 23.694 10.9954 -30.3512 -13.3151 62.9611 0.339237 -9.5395 0.0283062 -76.4969 -7.376 5.31318 6.09762 -16.4878 35.8282 -0.0 0.0 -0.0 11.4569 25.5905 -22.19 1.93735 14.2259 -56.1685 2.45785 50.5951 -1.16183 80.3551 3.87955 8.62966 2.98474 -29.9645 -28.9128 0.0 0.0 0.0 31.3814 24.7737 -15.4573 -6.16873 0.204388 0.9242 3.19512 -8.15656 -0.483529 -16.7555 0.0 0.0 -0.0 0.0 -0.0 -29.9479 24.6046 -2.05969 1.41752 0.0609622 0.208973 31.262 -24.5761 4.24106 -35.0863 0.0 0.0 0.0 0.0 0.0 
3065.50678427 663.025 -1659.98278009 12.8713874624 72.6301148748 -5.68873099676 -0.402719 -0.306919 -1.5679 -0.401375 -0.20654 -1.58425 -0.39474 0.14202 -1.59133 -0.398256 -0.111049 -1.59379 -7.80868 5.74737 2.0193 -7.80754 9.28615 3.23777 -0.0 0.0 -0.0 6.62298 23.7395 11.8826 -27.4865 -14.8325 62.1233 0.422276 -11.8151 0.0436946 -75.1129 -7.19929 5.3188 5.48067 -12.6643 33.2365 -0.0 0.0 -0.0 11.3379 22.7404 -22.2015 -2.51736 13.9311 -56.703 2.32509 49.0278 -1.0604 78.7041 3.68996 8.53503 3.00109 -28.0558 -28.7157 0.0 0.0 0.0 28.7764 24.6827 -16.4606 -10.7595 0.291321 1.6231 10.3721 -8.31598 -1.53301 -17.124 0.0 0.0 -0.0 0.0 -0.0 -31.7197 24.7866 -1.12112 0.765384 0.0322729 0.113018 27.5384 -24.8116 3.81347 -36.497 0.0 0.0 0.0 0.0 0.0 
3037.56106961 671.495 -1657.38466825 10.5551640275 71.5188685099 -3.10799260378 -0.328491 -0.354034 -1.67854 -0.326958 -0.246523 -1.69765 -0.318605 0.125306 -1.71087 -0.32266 -0.146427 -1.7092 -4.67502 6.30174 1.64154 -4.64688 10.327 2.73752 -0.0 0.0 -0.0 6.82091 23.6315 12.1735 -25.7193 -14.5347 62.1513 0.460249 -12.8437 0.0518034 -73.8487 -7.03776 5.32018 4.99625 -11.0806 30.3127 -0.0 0.0 -0.0 11.0495 20.776 -21.7094 -4.30896 13.9407 -57.7491 2.1133 46.306 -0.903796 76.8713 3.48278 8.42366 3.04067 -29.2689 -29.1624 0.0 0.0 0.0 28.0627 24.9051 -16.3878 -12.2984 0.307897 1.85865 12.7025 -6.93444 -1.84788 -20.2669 0.0 0.0 -0.0 0.0 -0.0 -30.1608 26.3114 -1.11141 -1.84468 -0.0715464 -0.274041 23.9197 -25.8951 3.39106 -36.7044 0.0 0.0 0.0 0.0 0.0 
